<?xml version="1.0" standalone="no"?>
<!DOCTYPE svg PUBLIC "-//W3C//DTD SVG 20010904//EN"
 "http://www.w3.org/TR/2001/REC-SVG-20010904/DTD/svg10.dtd">
<svg version="1.0" xmlns="http://www.w3.org/2000/svg"
 width="260.000000pt" height="260.000000pt" viewBox="0 0 260.000000 260.000000"
 preserveAspectRatio="xMidYMid meet">
<metadata>
Created by potrace 1.11, written by Peter Selinger 2001-2013
</metadata>
<g transform="translate(0.000000,260.000000) scale(0.100000,-0.100000)"
fill="#000000" stroke="none">
<path d="M645 2594 c-126 -28 -173 -43 -250 -80 -199 -96 -336 -257 -380 -445
-20 -90 -21 -1080 0 -1176 19 -88 85 -209 153 -280 53 -56 133 -123 145 -123
4 0 23 -11 43 -25 35 -24 188 -78 256 -91 18 -3 74 -7 123 -9 50 -2 95 -4 101
-4 6 -1 22 -10 35 -22 13 -11 49 -41 79 -67 50 -44 90 -78 165 -143 99 -87
142 -120 162 -125 28 -7 67 1 85 19 21 19 89 78 148 127 29 25 58 50 64 55 6
6 43 37 81 70 39 33 76 66 83 72 7 7 21 13 30 14 206 7 288 21 406 71 116 49
212 121 286 213 60 75 106 167 125 247 22 93 21 1084 0 1176 -31 131 -110 254
-221 346 -99 82 -200 130 -363 173 -28 7 -1323 14 -1356 7z"/>
</g>
</svg>
